<svg xmlns="http://www.w3.org/2000/svg" viewBox="0 0 800 600" width="100%" height="100%" style="background-color:transparent;">
    <!-- Define gradients -->
    <defs>
        <linearGradient id="whiteGradient" x1="0%" y1="0%" x2="100%" y2="100%">
            <stop offset="0%" stop-color="#FFFFFF" />
            <stop offset="100%" stop-color="#F8F9FA" />
        </linearGradient>

        <linearGradient id="lightPurpleGradient" x1="0%" y1="100%" x2="100%" y2="0%">
            <stop offset="0%" stop-color="#5C6BC0" />
            <stop offset="100%" stop-color="#7986CB" />
        </linearGradient>
    </defs>

    <!-- First heart (white) - placed further left -->
    <path d="M350,180 C430,110 540,150 540,260 C540,360 450,410 350,500 C250,410 160,360 160,260 C160,150 270,110 350,180 Z"
          fill="url(#whiteGradient)"
          opacity="0.95">
        <animate attributeName="opacity" values="0.85;0.95;0.85" dur="5s" repeatCount="indefinite" />
    </path>

    <!-- Second heart (light purple) - placed further right -->
    <path d="M520,140 C590,80 680,110 680,200 C680,280 610,330 520,410 C430,330 360,280 360,200 C360,110 450,80 520,140 Z"
          fill="url(#lightPurpleGradient)"
          opacity="0.9">
        <animate attributeName="opacity" values="0.8;0.9;0.8" dur="6s" repeatCount="indefinite" />
    </path>

    <!-- Small floating elements -->
    <g>
        <!-- Stars/sparkles scattered around -->
        <path d="M200,100 L210,120 L230,125 L210,140 L215,160 L200,150 L185,160 L190,140 L170,125 L190,120 Z"
              fill="#FFFFFF"
              opacity="0.7">
            <animate attributeName="opacity" values="0.3;0.7;0.3" dur="4s" repeatCount="indefinite" />
        </path>

        <path d="M650,200 L660,220 L680,225 L660,240 L665,260 L650,250 L635,260 L640,240 L620,225 L640,220 Z"
              fill="#FFFFFF"
              opacity="0.6">
            <animate attributeName="opacity" values="0.2;0.6;0.2" dur="5s" repeatCount="indefinite" />
        </path>

        <!-- Small complementary heart -->
        <path d="M600,350 C605,340 615,340 620,350 C625,340 635,340 640,350 C645,360 640,370 620,385 C600,370 595,360 600,350 Z"
              fill="#FFFFFF"
              opacity="0.8">
            <animate attributeName="opacity" values="0.4;0.8;0.4" dur="4s" repeatCount="indefinite" />
        </path>

        <!-- Small complementary heart -->
        <path d="M180,250 C185,240 195,240 200,250 C205,240 215,240 220,250 C225,260 220,270 200,285 C180,270 175,260 180,250 Z"
              fill="#FFFFFF"
              opacity="0.7">
            <animate attributeName="opacity" values="0.3;0.7;0.3" dur="5s" repeatCount="indefinite" />
        </path>
    </g>

    <!-- Simple sparkles -->
    <circle cx="270" cy="250" r="3" fill="#FFFFFF" opacity="0.8">
        <animate attributeName="opacity" values="0.5;0.8;0.5" dur="3s" repeatCount="indefinite" />
    </circle>

    <circle cx="400" cy="150" r="4" fill="#FFFFFF" opacity="0.9">
        <animate attributeName="opacity" values="0.6;0.9;0.6" dur="4s" repeatCount="indefinite" />
    </circle>

    <circle cx="550" cy="280" r="3" fill="#FFFFFF" opacity="0.7">
        <animate attributeName="opacity" values="0.4;0.7;0.4" dur="5s" repeatCount="indefinite" />
    </circle>
</svg>